<mxfile host="app.diagrams.net" modified="2023-07-05T10:03:03.096Z" agent="Mozilla/5.0 (Windows NT 10.0; Win64; x64) AppleWebKit/537.36 (KHTML, like Gecko) Chrome/114.0.0.0 Safari/537.36" etag="1hDoGbXhNYMF5fXYe_GM" version="21.5.2" type="device">
  <diagram name="Strona-1" id="e6tuXKaRqB1itzSJhNvw">
    <mxGraphModel dx="792" dy="1077" grid="1" gridSize="10" guides="1" tooltips="1" connect="1" arrows="1" fold="1" page="1" pageScale="1" pageWidth="827" pageHeight="1169" math="0" shadow="0">
      <root>
        <mxCell id="0" />
        <mxCell id="1" parent="0" />
        <mxCell id="17zP4cuUHcJbzXumgg_Q-8" value="" style="rounded=0;whiteSpace=wrap;html=1;dashed=1;dashPattern=8 8;strokeWidth=2;" parent="1" vertex="1">
          <mxGeometry x="80" y="480" width="680" height="360" as="geometry" />
        </mxCell>
        <mxCell id="17zP4cuUHcJbzXumgg_Q-1" value="" style="rounded=0;whiteSpace=wrap;html=1;dashed=1;dashPattern=8 8;strokeWidth=2;" parent="1" vertex="1">
          <mxGeometry x="80" y="120" width="680" height="360" as="geometry" />
        </mxCell>
        <mxCell id="17zP4cuUHcJbzXumgg_Q-2" value="REQUIRED" style="text;html=1;strokeColor=none;fillColor=none;align=center;verticalAlign=middle;whiteSpace=wrap;rounded=0;fontStyle=1;fontSize=15;" parent="1" vertex="1">
          <mxGeometry x="80" y="120" width="110" height="30" as="geometry" />
        </mxCell>
        <mxCell id="17zP4cuUHcJbzXumgg_Q-6" value="" style="edgeStyle=orthogonalEdgeStyle;rounded=0;orthogonalLoop=1;jettySize=auto;html=1;strokeWidth=3;" parent="1" source="17zP4cuUHcJbzXumgg_Q-3" target="17zP4cuUHcJbzXumgg_Q-4" edge="1">
          <mxGeometry relative="1" as="geometry" />
        </mxCell>
        <mxCell id="17zP4cuUHcJbzXumgg_Q-3" value="&lt;p style=&quot;line-height: 140%;&quot;&gt;&lt;b&gt;DECISION&lt;/b&gt;&lt;/p&gt;&lt;p style=&quot;line-height: 140%;&quot;&gt;&lt;b&gt;MATRIX&lt;/b&gt;&lt;/p&gt;" style="rounded=1;whiteSpace=wrap;html=1;fillColor=#dfec38;opacity=60;strokeColor=#dfec38;strokeWidth=3;" parent="1" vertex="1">
          <mxGeometry x="343" y="140" width="141" height="80" as="geometry" />
        </mxCell>
        <mxCell id="17zP4cuUHcJbzXumgg_Q-7" value="" style="edgeStyle=orthogonalEdgeStyle;rounded=0;orthogonalLoop=1;jettySize=auto;html=1;strokeWidth=3;" parent="1" source="17zP4cuUHcJbzXumgg_Q-4" target="17zP4cuUHcJbzXumgg_Q-5" edge="1">
          <mxGeometry relative="1" as="geometry" />
        </mxCell>
        <mxCell id="17zP4cuUHcJbzXumgg_Q-4" value="&lt;p style=&quot;line-height: 140%;&quot;&gt;&lt;b&gt;CRITERIA&lt;/b&gt;&lt;/p&gt;&lt;p style=&quot;line-height: 140%;&quot;&gt;&lt;b&gt;WEIGHTING&lt;/b&gt;&lt;/p&gt;&lt;p style=&quot;line-height: 140%;&quot;&gt;&lt;b&gt;METHOD&lt;/b&gt;&lt;/p&gt;" style="rounded=1;whiteSpace=wrap;html=1;fillColor=#ecb038;opacity=60;strokeColor=#ecb038;strokeWidth=3;" parent="1" vertex="1">
          <mxGeometry x="343" y="260" width="141" height="80" as="geometry" />
        </mxCell>
        <mxCell id="17zP4cuUHcJbzXumgg_Q-11" value="" style="edgeStyle=orthogonalEdgeStyle;rounded=0;orthogonalLoop=1;jettySize=auto;html=1;strokeWidth=3;" parent="1" source="17zP4cuUHcJbzXumgg_Q-5" target="17zP4cuUHcJbzXumgg_Q-10" edge="1">
          <mxGeometry relative="1" as="geometry" />
        </mxCell>
        <mxCell id="17zP4cuUHcJbzXumgg_Q-13" style="edgeStyle=orthogonalEdgeStyle;rounded=0;orthogonalLoop=1;jettySize=auto;html=1;strokeWidth=3;" parent="1" source="17zP4cuUHcJbzXumgg_Q-5" target="17zP4cuUHcJbzXumgg_Q-12" edge="1">
          <mxGeometry relative="1" as="geometry" />
        </mxCell>
        <mxCell id="17zP4cuUHcJbzXumgg_Q-5" value="&lt;p style=&quot;line-height: 140%;&quot;&gt;&lt;b&gt;MULTI-CRITERIA&lt;/b&gt;&lt;/p&gt;&lt;p style=&quot;line-height: 140%;&quot;&gt;&lt;b&gt;DECISION ANALYSIS&lt;/b&gt;&lt;/p&gt;&lt;p style=&quot;line-height: 140%;&quot;&gt;&lt;b&gt;METHOD&lt;/b&gt;&lt;/p&gt;" style="rounded=1;whiteSpace=wrap;html=1;fillColor=#4038ec;opacity=60;strokeColor=#4038ec;strokeWidth=3;" parent="1" vertex="1">
          <mxGeometry x="343" y="380" width="141" height="80" as="geometry" />
        </mxCell>
        <mxCell id="17zP4cuUHcJbzXumgg_Q-9" value="ADDITIONAL" style="text;html=1;strokeColor=none;fillColor=none;align=center;verticalAlign=middle;whiteSpace=wrap;rounded=0;fontStyle=1;fontSize=15;" parent="1" vertex="1">
          <mxGeometry x="80" y="480" width="120" height="30" as="geometry" />
        </mxCell>
        <mxCell id="17zP4cuUHcJbzXumgg_Q-15" value="" style="edgeStyle=orthogonalEdgeStyle;rounded=0;orthogonalLoop=1;jettySize=auto;html=1;strokeWidth=3;" parent="1" source="17zP4cuUHcJbzXumgg_Q-10" target="17zP4cuUHcJbzXumgg_Q-14" edge="1">
          <mxGeometry relative="1" as="geometry" />
        </mxCell>
        <mxCell id="17zP4cuUHcJbzXumgg_Q-10" value="&lt;p style=&quot;line-height: 170%;&quot;&gt;&lt;b&gt;RANKING&amp;nbsp;&lt;/b&gt;&lt;/p&gt;&lt;p style=&quot;line-height: 170%;&quot;&gt;&lt;b&gt;PREFERENCES&lt;/b&gt;&lt;/p&gt;" style="rounded=1;whiteSpace=wrap;html=1;fillColor=#ec385b;opacity=60;strokeColor=#ec385b;strokeWidth=3;" parent="1" vertex="1">
          <mxGeometry x="202" y="530" width="141" height="80" as="geometry" />
        </mxCell>
        <mxCell id="17zP4cuUHcJbzXumgg_Q-12" value="&lt;p style=&quot;line-height: 170%;&quot;&gt;&lt;b&gt;CORRELATION&lt;/b&gt;&lt;/p&gt;&lt;p style=&quot;line-height: 170%;&quot;&gt;&lt;b&gt;PREFERENCES&lt;/b&gt;&lt;/p&gt;" style="rounded=1;whiteSpace=wrap;html=1;fillColor=#5eec38;opacity=60;strokeColor=#5eec38;strokeWidth=3;" parent="1" vertex="1">
          <mxGeometry x="484" y="530" width="141" height="80" as="geometry" />
        </mxCell>
        <mxCell id="17zP4cuUHcJbzXumgg_Q-14" value="&lt;p style=&quot;line-height: 140%;&quot;&gt;&lt;b&gt;RANKING&lt;/b&gt;&lt;/p&gt;&lt;p style=&quot;line-height: 140%;&quot;&gt;&lt;b&gt;CORR&lt;/b&gt;&lt;b style=&quot;background-color: initial;&quot;&gt;ELATION&lt;/b&gt;&lt;/p&gt;" style="rounded=1;whiteSpace=wrap;html=1;fillColor=#5eec38;opacity=60;strokeColor=#5eec38;strokeWidth=3;" parent="1" vertex="1">
          <mxGeometry x="202" y="670" width="141" height="80" as="geometry" />
        </mxCell>
      </root>
    </mxGraphModel>
  </diagram>
</mxfile>
